# xmcd CD database file
#
# Track frame offsets:
#	150
#	31015
#	56930
#	86987
#	100305
#	118005
#	136482
#	148007
#
# Disc length: 2384 seconds
#
# Revision: 0
# Processed by: cddbd v1.5.1PL0 Copyright (c) Steve Scherf et al.
# Submitted via: CDex 1.51
#
DISCID=74094e08
DTITLE=Snapper - Born in the Ghetto
DYEAR=1994
DGENRE=Blues
TTITLE0=Born in the Ghetto
TTITLE1=Escapin' to Dayton
TTITLE2=Love and Leave Me
TTITLE3=Big Leg Baby
TTITLE4=I Wanna Be A Blues Man
TTITLE5=Have You Ever Loved A Woman
TTITLE6=Tired of These Blues
TTITLE7=Born in the Ghetto (instrumental)
EXTD=YEAR: 1994
EXTT0=
EXTT1=
EXTT2=
EXTT3=
EXTT4=
EXTT5=
EXTT6=
EXTT7=
PLAYORDER=
